<svg xmlns="http://www.w3.org/2000/svg" viewBox="0 0 280 64" fill="none" role="img" aria-label="Koppie Systems">
  <title>Koppie Systems</title>
  <svg x="0" y="0" width="64" height="64" viewBox="0 0 400 400" aria-hidden="true">
<!-- Figma master. Circular field = theme ink (--color-ink / #14242B). -->
  <circle cx="200" cy="200" r="200" fill="#14242B"/>
  <path d="M185.35 101.578C193.779 93.1817 200.045 73.1867 212.617 80.0333C215.619 81.668 219.162 86.7483 221.298 89.998C224.481 93.685 228.724 99.7623 231.797 103.842C233.842 106.558 238.496 112.539 240.158 115.254L239.659 115.426C238.298 113.952 235.524 109.371 234.583 109.072C233.333 110.368 229.548 113.769 229.211 115.445C229.835 118.185 234.586 121.57 234.188 123.536C233.307 122.51 232.204 120.978 231.397 119.82C226.413 112.664 220.504 105.781 215.773 98.396C213.386 95.4743 210.834 90.0257 207.198 90.299C202.222 90.6737 194.018 108.862 188.389 112.241C184.379 114.649 178.357 110.762 174.908 114.319C170.752 118.604 167.054 124.667 163.389 129.701C159.344 135.258 154.953 140.625 151.162 146.481C150.943 146.815 150.73 147.156 150.522 147.503L150.569 192.971C150.573 202.547 150.781 212.982 150.512 222.46C156.314 215.216 163.394 204.563 169.049 196.628L201.623 151.034L246.706 150.983L207.507 205.213C202.607 212.06 196.796 219.75 192.161 226.743L226.653 273.949C228.618 276.63 237.579 288.22 238.532 290.372C241.517 293.927 244.879 298.869 247.753 302.743C253.942 311.084 260.01 319.8 266.272 328.046C262.667 328.449 258.475 328.301 254.812 328.301L237.197 328.297C224.483 328.292 209.71 328.785 197.112 328.21C193.97 324.24 190.34 318.446 187.283 314.156C185.968 312.31 181.826 306.46 180.84 304.69C180.3 304.146 175.042 296.383 174.283 295.286L159.417 273.943C156.679 278.085 153.057 282.888 150.551 287.14C150.817 289.283 150.728 298.261 150.728 300.7C150.749 309.884 150.723 319.068 150.647 328.252C147.902 328.285 145.158 328.266 142.413 328.195C142.695 313.467 142.228 298.322 142.513 283.499C142.086 272.604 142.492 260.198 142.497 249.14L142.518 185.165L142.529 157.946C142.531 153.403 142.057 147.74 142.824 143.363C143.146 141.523 145.11 138.964 146.108 137.555C150.076 131.953 169.196 104.59 172.673 102.79C176.494 100.813 181.305 101.723 185.35 101.578Z" fill="#D78359"/>
  <path d="M205.124 162.347C212.183 162.396 219.339 162.522 226.389 162.464C224.826 165.447 218.386 173.904 216.203 176.947C208.471 187.831 200.685 198.645 192.845 209.39L175.595 233.603C173.232 236.934 168.983 243.275 166.531 246.154C176.868 261.245 188.132 276.498 198.746 291.312L207.014 302.873C207.476 303.522 210.661 308.002 211.064 308.381C212.111 310.189 215.524 314.591 216.926 316.643C211.687 316.855 205.892 316.717 200.623 316.63C196.467 310.073 191.706 303.845 187.415 297.414C185.338 294.302 183.009 291.012 180.783 288.092C174.073 277.927 165.917 267.521 159.51 257.494C156.337 261.499 153.547 265.838 150.504 270C150.805 266.403 150.678 260.484 150.651 256.724C150.608 250.85 150.706 244.61 150.546 238.77L188.108 186.152C193.577 178.507 199.883 170.141 205.124 162.347Z" fill="#14242B"/>
  <path d="M180.783 288.092C183.009 291.012 185.338 294.302 187.415 297.414C191.706 303.845 196.467 310.073 200.623 316.63C205.892 316.717 211.687 316.855 216.926 316.643C215.524 314.591 212.111 310.189 211.064 308.381C212.314 308.873 213.11 310.349 214.182 310.029C214.787 307.943 216.114 308.338 217.109 305.932C219.274 300.698 213.245 298.26 212.529 294.121C217.211 300.215 224.637 310.216 228.803 316.668C234.374 316.685 240.058 316.772 245.622 316.667C242.407 311.627 237.964 306.401 235.055 301.724C235.989 301.649 237.299 303.008 237.751 302.944C239.001 302.767 241.21 296.817 240.896 295.51C240.526 293.965 238.988 292.449 238.532 290.372C241.517 293.927 244.879 298.869 247.753 302.743C253.942 311.084 260.01 319.8 266.272 328.046C262.667 328.449 258.475 328.301 254.812 328.301L237.197 328.297C224.483 328.292 209.71 328.785 197.112 328.21C193.97 324.24 190.34 318.446 187.283 314.156C185.968 312.31 181.826 306.46 180.84 304.69C182.289 305.299 181.715 306.014 183.38 306.425C184.109 306.131 184.138 305.927 184.608 305.043C184.389 304.26 184.36 304.056 184.255 303.228C185.122 302.14 185.642 303.246 186.607 302.212C186.685 301.296 186.643 300.918 187.061 300.242L187.883 300.149C186.211 295.15 182.118 292.626 180.783 288.092Z" fill="#A25838"/>
  <path d="M186.233 234.632L222.064 283.931C224.91 287.83 227.741 291.75 230.555 295.691C231.23 296.63 234.402 301.074 235.055 301.724C237.964 306.401 242.407 311.627 245.622 316.667C240.058 316.772 234.374 316.685 228.803 316.668C224.637 310.216 217.211 300.215 212.529 294.121C208.007 287.213 201.503 278.741 196.552 271.925C190.681 263.842 183.983 253.862 177.973 246.217L186.233 234.632Z" fill="#14242B"/>
  <path d="M142.513 283.499C143.319 286.43 142.761 296.008 142.927 299.767C145.267 300.285 148.833 298.953 149.891 299.667C150.514 298.431 149.635 290.683 150.551 287.14C150.817 289.283 150.728 298.261 150.728 300.7C150.749 309.884 150.723 319.068 150.647 328.252C147.902 328.285 145.158 328.266 142.413 328.195C142.695 313.467 142.228 298.322 142.513 283.499Z" fill="#A25838"/>
  <path d="M177.609 70.147C179.704 68.323 181.061 65.84 182.89 63.4987C188.173 56.9857 193.929 46.0753 199.856 41.181C203.804 37.9203 216.076 38.6393 219.668 43.1763C223.462 47.967 227.046 52.8167 230.688 57.6957L253.288 87.9703L288.383 134.992C294.515 143.164 300.668 151.347 306.793 159.521C311.433 165.717 305.505 172.273 301.885 168.654C299.63 166.399 296.378 161.777 294.26 158.952L281.467 141.847L235.408 80.074C231.393 74.718 227.407 69.3223 223.45 63.8883C221.016 60.5363 216.236 53.321 213.214 51.2733C211.639 50.2057 205.834 50.8907 203.859 51.0687C201.833 52.6767 199.577 56.161 197.91 58.5133L189.082 70.9787C186.346 74.8447 183.43 79.8503 179.498 81.3277C175.738 82.741 167.823 79.8537 164.814 83.3093C162.108 86.4177 158.941 91.0647 156.406 94.5683C149.391 104.312 142.328 113.995 135.219 123.616C132.746 126.989 127.489 134.714 124.878 137.247C121.463 137.62 115.184 137.366 111.597 137.365C111.268 153.652 111.554 171.755 111.548 188.181C111.793 193.782 111.644 201.034 111.644 206.778L111.647 240.48C111.676 269.43 112.007 299.369 111.687 328.216C108.823 328.265 105.875 328.383 103.025 328.098L103.068 249.796L103.087 226.097C103.085 223.176 102.973 215.986 103.204 213.228L103.228 126.161C109.373 126.034 115.578 126.143 121.738 126.066C125.03 121.94 128.649 116.672 131.825 112.305L148.757 89.1643C151.974 84.771 159.071 74.1773 162.777 71.4343C165.14 69.686 174.05 70.527 177.609 70.147Z" fill="url(#ks-mark-paint0)"/>
  <path d="M111.548 188.181C111.793 193.782 111.644 201.034 111.644 206.778L111.647 240.48C111.676 269.43 112.007 299.369 111.687 328.216C108.823 328.265 105.875 328.383 103.025 328.098L103.068 249.796L103.087 226.097C103.085 223.176 102.973 215.986 103.204 213.228C103.432 216.216 103.313 222.404 103.313 225.645L103.308 248.545L103.622 308.168C107.5 310.59 106.892 306.471 111.118 309.329C111.517 281.503 111.625 253.672 111.44 225.842C111.444 214.264 111.13 199.555 111.548 188.181Z" fill="url(#ks-mark-paint1)"/>
  <path d="M122.985 275.85C122.624 250.158 122.986 223.126 122.993 197.324L122.954 169.735C122.939 164.598 122.849 159.446 123.036 154.321C123.083 146.586 131.005 146.591 131.202 154.04C131.373 160.528 131.222 167.436 131.224 173.956L131.206 218.868C131.338 226.802 131.31 234.885 131.27 242.832C131.127 271.28 131.482 299.822 131.214 328.259C128.543 328.271 125.542 328.37 122.903 328.154L122.879 293.472C122.878 289.206 122.694 279.853 122.985 275.85Z" fill="url(#ks-mark-paint2)"/>
  <path d="M130.628 311.525C130.604 287.686 131.14 263.942 131.102 240.105C131.092 233.183 130.872 225.726 131.206 218.868C131.338 226.802 131.31 234.885 131.27 242.832C131.127 271.28 131.482 299.822 131.214 328.259C128.543 328.271 125.542 328.37 122.903 328.154L122.879 293.472C122.878 289.206 122.694 279.853 122.985 275.85C123.906 279.047 123.161 296.003 123.347 300.616C123.892 314.173 121.697 310.515 130.628 311.525Z" fill="url(#ks-mark-paint3)"/>
  <path d="M234.188 123.536C234.586 121.57 229.835 118.185 229.211 115.445C229.548 113.769 233.333 110.368 234.583 109.072C235.524 109.371 238.298 113.952 239.659 115.426L240.158 115.254C242.254 117.601 245.619 122.455 247.645 125.21L262.215 145.181L279.275 168.417C282.482 172.726 286.375 177.623 289.395 182.034C293.42 187.91 297.145 195.247 301.462 200.92C304.277 201.187 307.015 201.077 309.83 201.015C311.862 204.199 315.097 209.074 316.438 212.673C310.423 212.715 298.673 214.633 294.94 208.375C286.16 193.655 276.837 181.437 266.905 168.126L245.283 138.765C243.333 136.116 235.27 125.9 234.188 123.536Z" fill="url(#ks-mark-paint4)"/>
  <ellipse cx="155" cy="105" rx="65" ry="45" fill="url(#ks-mark-paint5)"/>
  <defs>
    <linearGradient id="ks-mark-paint0" x1="205.76" y1="39.1661" x2="205.76" y2="328.282" gradientUnits="userSpaceOnUse">
      <stop stop-color="#E89468"/>
      <stop offset="0.5" stop-color="#D07B50"/>
      <stop offset="1" stop-color="#A85C38"/>
    </linearGradient>
    <linearGradient id="ks-mark-paint1" x1="107.426" y1="188.181" x2="107.426" y2="328.282" gradientUnits="userSpaceOnUse">
      <stop stop-color="#C87A50"/>
      <stop offset="1" stop-color="#A25838"/>
    </linearGradient>
    <linearGradient id="ks-mark-paint2" x1="122.821" y1="328.292" x2="131.317" y2="328.292" gradientUnits="userSpaceOnUse">
      <stop stop-color="#D07B52"/>
      <stop offset="0.4" stop-color="#B87D60"/>
      <stop offset="0.75" stop-color="#7E9690"/>
      <stop offset="1" stop-color="#56999C"/>
    </linearGradient>
    <linearGradient id="ks-mark-paint3" x1="122.821" y1="218.868" x2="122.821" y2="328.292" gradientUnits="userSpaceOnUse">
      <stop stop-color="#A25838"/>
      <stop offset="1" stop-color="#8C4A30"/>
    </linearGradient>
    <linearGradient id="ks-mark-paint4" x1="229.211" y1="212.982" x2="316.438" y2="212.982" gradientUnits="userSpaceOnUse">
      <stop stop-color="#C07858"/>
      <stop offset="0.35" stop-color="#8A8E80"/>
      <stop offset="0.65" stop-color="#5C9898"/>
      <stop offset="1" stop-color="#4A9A9E"/>
    </linearGradient>
    <radialGradient id="ks-mark-paint5" cx="0" cy="0" r="1" gradientUnits="userSpaceOnUse" gradientTransform="translate(155 105) scale(65 45)">
      <stop stop-color="#E68C59" stop-opacity="0.2"/>
      <stop offset="1" stop-color="#E68C59" stop-opacity="0"/>
    </radialGradient>
  </defs>
  </svg>
  <g font-family="Manrope, Inter, Segoe UI, Helvetica, Arial, sans-serif">
    <text x="76" y="30" fill="#14242B" font-size="22" font-weight="700" letter-spacing="-0.02em">Koppie</text>
    <text x="76" y="48" fill="#1E6F6D" font-size="11" font-weight="600" letter-spacing="0.16em">SYSTEMS</text>
  </g>
</svg>
